<svg xmlns="http://www.w3.org/2000/svg" version="1.1" xmlns:xlink="http://www.w3.org/1999/xlink" width="32" height="32"><svg xmlns="http://www.w3.org/2000/svg" viewBox="0 0 32 32" width="32" height="32">
    <defs>
        <linearGradient id="SvgjsLinearGradient1007" x1="0%" y1="0%" x2="100%" y2="100%">
            <stop offset="0%" style="stop-color:#2c3e50"></stop>
            <stop offset="100%" style="stop-color:#34495e"></stop>
        </linearGradient>
        <linearGradient id="SvgjsLinearGradient1006" x1="0%" y1="0%" x2="100%" y2="100%">
            <stop offset="0%" style="stop-color:#e74c3c"></stop>
            <stop offset="100%" style="stop-color:#c0392b"></stop>
        </linearGradient>
    </defs>

    <!-- Water waves -->
    <path d="M0 24 Q8 20 16 24 T32 24 L32 32 L0 32 Z" fill="#3498db" opacity="0.6"></path>
    <path d="M0 26 Q8 22 16 26 T32 26 L32 32 L0 32 Z" fill="#2980b9" opacity="0.4"></path>

    <!-- Ship hull -->
    <path d="M6 20 Q16 16 26 20 L24 24 L8 24 Z" fill="url(#shipGradient)"></path>

    <!-- Ship deck -->
    <rect x="10" y="18" width="12" height="2" fill="#34495e"></rect>

    <!-- Mast -->
    <rect x="15.5" y="8" width="1" height="12" fill="#8b4513"></rect>

    <!-- Sail -->
    <path d="M12 8 Q16 6 20 8 L20 16 L12 16 Z" fill="#ecf0f1" stroke="#bdc3c7" stroke-width="0.5"></path>

    <!-- Flag -->
    <path d="M16 4 L16 10 L22 8 L16 6 Z" fill="url(#flagGradient)"></path>

    <!-- Ship details -->
    <circle cx="12" cy="19" r="0.5" fill="#f39c12"></circle>
    <circle cx="20" cy="19" r="0.5" fill="#f39c12"></circle>
</svg><style>@media (prefers-color-scheme: light) { :root { filter: none; } }
@media (prefers-color-scheme: dark) { :root { filter: none; } }
</style></svg>